<?xml version="1.0" encoding="UTF-8"?><svg id="Layer_2" xmlns="http://www.w3.org/2000/svg" viewBox="0 0 595.67 141.97"><g id="Layer_1-2"><g><path d="M520.54,140.39h-27.32v-2.28c0-12.61,.01-25.22-.02-37.83,0-1.47-.11-2.99-.47-4.4-1.17-4.63-5.69-6.83-10.54-5.26-3.11,1-5.63,2.87-7.5,5.49-.66,.93-1.09,2.24-1.1,3.38-.08,12.92-.08,25.84-.01,38.76,0,1.74-.4,2.33-2.24,2.31-7.8-.1-15.6-.04-23.4-.04h-2.05c-.04-.88-.1-1.59-.1-2.31,0-12.49,.01-24.97-.03-37.46,0-1.59-.08-3.24-.51-4.76-1.37-4.79-6.01-7.03-10.7-5.3-3.23,1.2-5.79,3.3-7.69,6.14-.44,.65-.59,1.61-.59,2.42-.04,12.92-.02,25.84-.02,38.76v2.36c-.73,.05-1.32,.13-1.92,.13-7.86,0-15.72-.03-23.59,.04-1.5,.01-2.03-.37-2.03-1.95,.06-22.87,.05-45.74,.05-68.62,0-1.08,0-1.89,1.51-1.88,8.23,.06,16.47,.03,24.7,.04,.36,0,.71,.08,1.23,.15v9.5c6.63-7.13,14.28-10.95,23.62-11.04,9.78-.09,16.87,4.35,21.59,12.86,2.21-2,4.16-3.96,6.32-5.68,4.67-3.73,9.93-6.19,15.94-6.89,13.76-1.61,23.55,5.44,26.16,18.99,.53,2.77,.77,5.64,.79,8.46,.08,14.71,.04,29.42,.03,44.14,0,.54-.07,1.09-.11,1.77Z"/><path d="M0,140.51V46.89H27.3v22.85c2.36-.62,4.46-1.29,6.61-1.73,10.96-2.22,21.54-1.53,31.23,4.63,9.76,6.2,14.91,15.31,16.42,26.65,1.36,10.22-.89,19.53-7.11,27.75-5.6,7.4-13.21,11.56-22.33,12.96-2.55,.39-5.17,.48-7.76,.49-13.93,.05-27.86,.02-41.78,.02H0Zm27.31-36.51c0,3.71-.04,7.42,.04,11.12,.01,.56,.53,1.53,.94,1.6,4.82,.83,9.69,1.3,14.56,.44,6.34-1.12,11.07-5.93,11.67-11.76,.69-6.58-2.75-12.25-9.1-14.49-5.69-2.01-11.46-1.27-17.13,.31-.45,.13-.94,1.08-.95,1.65-.09,3.71-.04,7.42-.04,11.12Z"/><path d="M128.87,141.97c-8.83-.17-17.27-1.7-24.92-6.25-10.07-6-15.59-14.98-17.12-26.53-.94-7.15-.12-14.05,2.88-20.61,5.35-11.74,14.92-18.11,27.23-20.65,9.14-1.88,18.37-1.82,27.35,.87,15.17,4.55,24.3,14.58,26.46,30.46,1.53,11.24-1.2,21.32-8.82,29.88-5.73,6.43-13.16,9.94-21.47,11.56-3.8,.74-7.72,.86-11.58,1.27Zm-.01-23.61c9.25,.32,16.4-7.07,14.43-17.19-1.02-5.24-5.01-10.72-13.87-11.01-9.94-.32-16.75,6.85-15.01,17.06,1.28,7.53,7.99,11.48,14.46,11.14Z"/><path d="M350.17,141.86c-8.88-.06-17.36-1.62-25.07-6.23-9.69-5.79-15.18-14.42-16.85-25.5-1.31-8.69-.13-17,4.29-24.68,5.64-9.79,14.46-15.18,25.27-17.46,9.45-1.99,18.92-1.78,28.25,.92,14.86,4.31,24.47,15.88,26.08,31.21,1.32,12.57-2.35,23.33-11.83,31.81-6.06,5.42-13.41,8.23-21.45,9.21-2.88,.35-5.79,.48-8.68,.71Zm-.06-23.47c8.7,.29,16.49-6.37,14.42-17.25-1.01-5.32-4.29-8.95-9.49-10.32-5.77-1.51-11.34-.93-15.84,3.55-3.98,3.96-5.04,10.36-2.62,15.84,2.58,5.85,7.46,8.04,13.54,8.17Z"/><path d="M303.3,94.03c-3.37-1.07-6.59-2.4-9.94-3.07-5.93-1.19-11.93-1.63-17.48,1.63-4.88,2.88-7.17,7.22-6.74,12.85,.4,5.21,3.25,8.83,7.93,10.98,5.73,2.64,11.66,2.42,17.58,.82,3.01-.81,5.93-1.99,9.06-3.06,.06,.63,.16,1.17,.16,1.7,.01,6.55-.02,13.11,.04,19.66,.01,1.34-.49,1.88-1.72,2.35-8.41,3.21-17.1,4.44-26.03,3.59-15.84-1.52-29.45-10.69-33.39-26.75-3.56-14.55-.43-27.59,10.52-38.21,5.99-5.81,13.55-8.57,21.73-9.34,9.06-.86,18.01,.18,26.72,2.91,.71,.22,1.58,.18,1.57,1.38-.04,7.53-.02,15.06-.02,22.56Z"/><path d="M177.21,140.51V46.91h27.26c.05,.72,.15,1.43,.15,2.14,0,29.72-.01,59.44,.05,89.15,0,1.91-.56,2.37-2.4,2.34-7.61-.1-15.22-.04-22.83-.04h-2.23Z"/><path d="M240.96,125.16c0,9.28-7.18,16.55-16.32,16.54-9.29-.01-16.32-7.34-16.3-16.98,.02-9.04,7.35-16.39,16.37-16.43,9.12-.03,16.25,7.37,16.25,16.87Z"/><path d="M511.72,42.15c-.33-21.36,17.11-41.49,40.88-42.13,22.89-.62,41.83,17.37,43.01,40.4,1.2,23.36-16.93,43.23-39.96,44.32-24.64,1.17-44.27-19.03-43.93-42.59Zm2.42,1.17c.2,22.48,20.47,41.86,44.67,38.65,19.68-2.61,35.44-20.2,34.31-41.41-1.2-22.57-19.66-38.94-40.97-38.01-24.03,1.05-39.01,21.89-38,40.78Z"/><path d="M547.25,25.73c-6.17,.28-10.68,2.99-13.14,8.82-.2,.47-.85,.75-1.29,1.12-.28-.55-.89-1.17-.79-1.64,1.26-5.71,6.19-11.9,13.49-11.92,7.13-.02,11.39,6.67,7.86,12.81-3.58,6.23-9.32,9.57-16.24,10.84-2.12,.39-4.48,.34-6.57-.19-6.21-1.56-8.95-7.04-7.01-13.45,1.68-5.52,5.28-9.76,9.53-13.41,2.7-2.32,5.78-4.19,8.71-6.24,1.53-1.07,2.21,.18,2.93,1.18,.93,1.29-.15,1.65-1.01,2.17-5.83,3.5-11.1,7.64-14.9,13.39-1.69,2.56-2.87,5.33-2.98,8.44-.12,3.33,1.2,5.08,4.53,5.33,2.28,.17,4.71,.04,6.89-.61,4.3-1.29,8.03-3.77,11.39-6.75,.87-.77,1.67-1.66,2.35-2.6,1.18-1.62,2.27-3.41,1.18-5.45-1.04-1.94-3.05-1.82-4.94-1.84Z"/><path d="M557.99,33.74c-2.25-1.16-2.46-2.22-.6-4.22,3.28-3.53,6.91-6.64,11.67-7.84,2.15-.54,4.58-.74,6.75-.34,6.41,1.19,9.68,7.72,7.41,14.23-2.72,7.8-12.2,12.76-20.14,10.48-3.01-.86-5.09-2.76-5.69-5.94-.15-.8-.09-1.73,.17-2.51,.78-2.38,2.22-2.66,4.18-.79-.42,.5-.86,.99-1.25,1.51-1.85,2.44-.88,5.01,2.15,5.44,4.18,.6,7.96-.66,11.38-2.94,3.59-2.38,6.35-5.49,7.36-9.82,.88-3.75-1.4-6.59-5.29-6.69-5.47-.14-9.86,2.32-13.85,5.73-1.36,1.16-2.7,2.35-4.25,3.71Z"/><path d="M547.48,74.6c-2.61-.81-5.38-1.3-7.8-2.49-3.62-1.79-5.13-5.76-4.27-9.75,.87-4.06,3.09-7.41,5.89-10.32,2.47-2.58,5.27-4.85,7.9-7.28,1.48-1.37,2.36-.07,3.24,.77,1.12,1.08-.11,1.54-.72,2.14-3.34,3.3-6.8,6.48-9.94,9.95-1.45,1.6-2.54,3.66-3.36,5.69-1.94,4.83,.57,7.98,5.79,7.71,5.06-.27,9.83-1.64,14.56-3.29,.73-.25,1.88-.18,2.46,.24,1.33,.97,1.15,1.83-.33,2.63-4.14,2.25-8.52,3.58-13.28,3.45-.05,.18-.11,.37-.16,.55Z"/></g></g></svg>