<?xml version="1.0" encoding="UTF-8"?><svg id="Layer_2" xmlns="http://www.w3.org/2000/svg" viewBox="0 0 451.62 318.42"><defs><style>.cls-1{fill:#1c743e;}</style></defs><g id="Layer_1-2"><path class="cls-1" d="M451.5,34.78c1.06,10.26-5.12,18.76-12.7,26.35-83.7,83.81-167.57,167.45-251.1,251.42-7.52,7.56-11.92,8.06-19.77,.1-51.4-52.09-103.6-103.4-154.97-155.52-16.82-17.07-16.9-38.12-2.33-52.04,13.82-13.2,33.54-12.48,50.26,3.76,34.64,33.63,69.1,67.5,102.45,102.39,11.43,11.95,17.38,12.85,29.63,.34C258.43,144.75,325.15,79.15,391.11,12.8c12.07-12.14,25.69-16.17,40.94-9.82,12.63,5.26,19.56,16.04,19.44,31.8Z"/></g></svg>