<?xml version="1.0" encoding="UTF-8"?><svg id="Layer_2" xmlns="http://www.w3.org/2000/svg" viewBox="0 0 540.69 648.15"><defs><style>.cls-1{fill:#fff;}</style></defs><g id="Layer_6"><path class="cls-1" d="m370.89,288.81c31.22,14.22,59.7,30.33,85.59,53.12,25.08,22.08,46.37,48.93,60.67,79.23,14.72,31.21,24.75,66.99,23.42,101.78-1.26,32.83-23.6,57.77-50.06,74.58-29.2,18.55-62.53,29.06-96.06,36.59-34.82,7.81-70.75,12.74-106.44,13.8-37.39,1.11-75.19-1.67-112.12-7.51-33.84-5.35-67.95-14.12-99.16-28.42-28.75-13.18-57.45-31.5-70.13-61.85-12.75-30.5-4.75-68.13,5.06-98.41,20.36-62.83,65.94-114.97,123.6-146.56,6.86-3.76,13.9-7.2,21.1-10.28,3.05-1.3,10.05-2.62,12.08-4.93.71-.81,1.85-.26,1.71-1.74-.12-1.3-3.95-3.34-5.07-4.26-12.79-10.45-23.03-23.46-31.86-37.36-19.12-30.1-26.25-64.38-23.71-99.74,4.61-64.24,51.99-120.12,112.59-139.48,64.22-20.52,136.28,2.9,177.35,56.17,41.99,54.46,43.43,132.33,5.1,189-8.59,12.7-19,24.13-30.94,33.77-.79.63-1.49,1.37-2.7,2.5Zm-94.43,305.34c0-.12,0-.24.01-.35,43.31-1.61,86.01-5.45,127.86-17.45,19.65-5.64,38.77-13.42,56.26-24.08,7.89-4.81,16.08-10.8,21.34-18.57,5.42-8.01,4.7-17.9,4.03-27.14-5.37-73.95-60.18-136.04-126.54-164.23-69.27-29.43-150.16-22.33-213.1,19.04-28.48,18.72-52.77,43.79-69.08,73.81-8.81,16.22-15.04,32.81-18.65,50.92-3.02,15.18-9.01,37.66,3.09,49.92,25.88,26.23,63.39,37.57,98.41,45.67,38.29,8.85,77.22,11.04,116.36,12.46Zm-4.39-324.68c57.59-1.35,106.52-47.15,106.12-108.11-.4-60-47.69-107.07-107.43-107.2-59.15-.13-107.76,47.21-107.89,107.33-.13,57.25,45.87,108.25,109.21,107.99Z"/></g></svg>