<?xml version="1.0" encoding="UTF-8"?><svg id="Layer_2" xmlns="http://www.w3.org/2000/svg" viewBox="0 0 604.94 565.45"><defs><style>.cls-1{fill:#2b318e;}</style></defs><g id="Layer_2-2"><path class="cls-1" d="m177.67,0c47.11,1.31,84.08,16.99,116.75,43.38,6.24,5.04,10.14,5.14,16.42.05C342.09,18.08,377.49,1.88,418.13.47c49.51-1.71,90.84,17.66,124.75,53.01,37.51,39.09,56.99,86.11,61.43,140.05,4.17,50.72-13.24,94.66-40.06,135.92-32.04,49.29-72.94,90.83-117.79,128.08-43.23,35.91-88.83,68.96-133.17,103.55-7.59,5.92-13.4,5.68-21.25.1-73.51-52.25-144.92-106.98-205.97-173.9-32.71-35.86-61.95-74.53-76.39-121.58C-11.88,195.41,3.53,130.82,46.14,72.6,72.57,36.48,107.52,11.51,152.63,3.25c9.75-1.79,19.69-2.57,25.04-3.25Zm380.01,208.23c-1.41-39.95-13.76-76.4-38.83-108.35-28.96-36.9-73.79-58.7-120.79-48.1-24.26,5.47-45.52,18.49-64.03,34.77-6.16,5.41-22.6,27.5-31.29,27.45-9.42-.06-23.44-20.41-30.41-26.39C195.52,21.71,104.34,50.14,62.99,138.73c-44.23,94.76,20.87,179.41,85.66,244.17,37.2,37.18,77.94,70.61,119.68,102.53,7.6,5.81,23.96,22.94,34.39,23.36,9.48.39,25.21-17.08,32.38-22.64,20.6-15.96,41.28-31.82,61.28-48.53,66.39-55.47,159.62-135.06,161.29-229.39Z"/></g></svg>