<?xml version="1.0" encoding="UTF-8"?><svg id="Layer_2" xmlns="http://www.w3.org/2000/svg" viewBox="0 0 586.08 540.04"><defs><style>.cls-1{fill:#fff;}</style></defs><g id="Layer_4"><g><path class="cls-1" d="m397.11,442.44h-107.17c4.28,17.16,5.75,32.75-.33,49.78-4.55,12.75-12.15,24.25-22.92,32.58-25.11,19.45-63.92,20.69-89.53,1.39-26.36-19.87-37.13-54.12-24.78-85.19,2.81-7.06,6.51-13.85,10.81-20.11,1.67-2.43,4.91-5.18,5.47-8.18.8-4.27-1.98-10-3.05-14.11-4.51-17.31-8.88-34.66-13.23-52.02-17.6-70.31-35.18-140.63-52.5-211.01-4.51-18.32-9.15-36.61-13.87-54.88-2.12-8.23-4.25-16.45-6.2-24.72-.98-4.16-.46-6.06-4.7-6.49-5.04-.51-10.43.04-15.5.05-9.04.03-18.08.04-27.12.02-7.13-.02-14.34.35-20.75-3.3C1.68,40.48-2.19,27.56,1.2,16.76,5.11,4.33,16.31.49,28.3.2c18.63-.44,37.32,0,55.96-.02,8.48,0,16.96-.02,25.44-.05,3.46-.01,6.89-.97,8.71,2.35,2.11,3.85,2.43,9.97,3.45,14.25,4.2,17.53,8.63,35.01,13.03,52.5,2.11,8.4,3.58,17.35,6.39,25.53,1.28,3.73,2.06,3.57,6.08,3.63,5.19.08,10.38,0,15.57,0,18.16,0,36.32-.02,54.49-.02,37.19-.01,74.38-.02,111.57-.01,37.97,0,75.95,0,113.92,0,18.1,0,36.2.01,54.29.02,18.24.01,37.54-1.78,55.65.5,13.34,1.68,25.25,10.35,30.54,22.8,2.98,7.03,3.54,13,1.47,20.3-2.45,8.66-4.95,17.3-7.1,26.04-8.68,35.29-17.07,70.66-25.75,105.95-8.83,35.91-17.69,71.81-26.5,107.72-2.13,8.67-4.14,17.39-6.51,26-1.12,4.05-.95,5.1,1.76,8.45,2.72,3.36,5.21,6.8,7.37,10.56,8.14,14.2,13.17,30.35,11.32,46.82-3.66,32.6-26.06,59.25-58.87,65.27-32.9,6.03-68.09-10.2-81.68-41.49-6.93-15.97-6.48-31.05-3.62-47.83.38-2.21,1.12-4.35,1.84-7.03Zm74.07-49.65c20.43-81.66,40.84-163.21,61.29-244.93H154.69c.14.89.19,1.57.35,2.22,3.49,14.02,6.99,28.04,10.5,42.06,6.23,24.88,12.48,49.75,18.7,74.63,6.26,25.03,12.5,50.07,18.74,75.1,3.87,15.53,7.75,31.07,11.59,46.61,1.07,4.31,1.03,4.32,5.79,4.32,82.43,0,164.87,0,247.3,0h3.5Zm-29.27,73.12c-.08,14.7,9.61,24.85,23.77,24.92,20.83.1,33.25-24.97,18.77-41.04-14.02-15.56-43.44-5.6-42.54,16.12Zm-196.96.69c.49-12.05-7.63-24.26-24.26-24.36-21.56-.13-32.95,27.34-16.93,42.31,15.37,14.37,41.74,3.11,41.19-17.95Z"/><path class="cls-1" d="m441.91,465.92c-.9-21.71,28.52-31.67,42.54-16.12,14.49,16.07,2.06,41.15-18.77,41.04-14.16-.07-23.85-10.23-23.77-24.92Z"/><path class="cls-1" d="m244.95,466.61c.55,21.06-25.82,32.32-41.19,17.95-16.02-14.98-4.63-42.44,16.93-42.31,16.63.1,24.75,12.31,24.26,24.36Z"/></g></g></svg>